<svg width="50" height="37" viewBox="0 0 50 37" xmlns="http://www.w3.org/2000/svg">
<g clip-path="url(#clip0)">
<path  d="M42.3271 4.01789C39.1403 2.62104 35.7229 1.5919 32.1498 1.00247C32.0847 0.991097 32.0197 1.01953 31.9862 1.07638C31.5467 1.82312 31.0599 2.7973 30.7189 3.56299C26.8758 3.01338 23.0525 3.01338 19.2882 3.56299C18.9472 2.78028 18.4427 1.82312 18.0012 1.07638C17.9677 1.02142 17.9027 0.992994 17.8376 1.00247C14.2665 1.59002 10.8491 2.61916 7.66028 4.01789C7.63268 4.02926 7.60901 4.04823 7.59331 4.07285C1.11123 13.3238 -0.66448 22.3474 0.206625 31.259C0.210567 31.3026 0.236187 31.3443 0.271663 31.3708C4.54835 34.3711 8.69106 36.1925 12.7568 37.3998C12.8219 37.4187 12.8908 37.396 12.9323 37.3448C13.894 36.0902 14.7513 34.7672 15.4864 33.376C15.5298 33.2946 15.4884 33.1979 15.3997 33.1657C14.0399 32.6729 12.745 32.0721 11.4994 31.3898C11.4009 31.3349 11.393 31.2002 11.4837 31.1358C11.7458 30.9482 12.008 30.7529 12.2582 30.5558C12.3035 30.5198 12.3666 30.5122 12.4199 30.535C20.6027 34.1039 29.4616 34.1039 37.5478 30.535C37.6011 30.5104 37.6642 30.518 37.7114 30.554C37.9618 30.7511 38.2239 30.9482 38.488 31.1358C38.5786 31.2002 38.5727 31.3349 38.4742 31.3898C37.2286 32.0854 35.9337 32.6729 34.5719 33.1638C34.4832 33.196 34.4438 33.2946 34.4872 33.376C35.238 34.7653 36.0954 36.0882 37.0394 37.3429C37.0788 37.396 37.1497 37.4187 37.2148 37.3998C41.3003 36.1925 45.443 34.3711 49.7196 31.3708C49.7571 31.3443 49.7808 31.3045 49.7847 31.2609C50.8273 20.958 48.0385 12.0085 42.3921 4.07474C42.3783 4.04823 42.3547 4.02926 42.3271 4.01789ZM16.7084 25.8328C14.2448 25.8328 12.2149 23.6722 12.2149 21.0187C12.2149 18.3653 14.2054 16.2047 16.7084 16.2047C19.231 16.2047 21.2413 18.3843 21.2018 21.0187C21.2018 23.6722 19.2113 25.8328 16.7084 25.8328ZM33.3224 25.8328C30.8589 25.8328 28.8289 23.6722 28.8289 21.0187C28.8289 18.3653 30.8194 16.2047 33.3224 16.2047C35.8451 16.2047 37.8553 18.3843 37.8159 21.0187C37.8159 23.6722 35.8451 25.8328 33.3224 25.8328Z"/>
</g>
<defs>
<clipPath id="clip0">
<rect width="50" height="37" fill="white"/>
</clipPath>
</defs>

<style>
  svg {
    fill: #FD82A9
  }
</style>

</svg>


