<svg width="48" height="48" viewBox="0 0 48 48" xmlns="http://www.w3.org/2000/svg">
<path d="M46.5 19.5C46.5003 18.35 46.17 17.2242 45.5485 16.2567C44.927 15.2891 44.0405 14.5206 42.9946 14.0427C41.9487 13.5647 40.7874 13.3975 39.6491 13.5609C38.5108 13.7243 37.4435 14.2114 36.5742 14.9643C33.4328 13.2953 29.6814 12.287 25.7618 12.0533L26.7361 6.20783L30.8294 6.83753C31.0268 7.88075 31.5866 8.8206 32.41 9.49097C33.2333 10.1613 34.2671 10.519 35.3287 10.5009C36.3903 10.4827 37.4112 10.0898 38.2112 9.39169C39.0111 8.69355 39.5384 7.73509 39.7 6.68573C39.8616 5.63636 39.647 4.56366 39.0942 3.65722C38.5413 2.75078 37.6858 2.06896 36.6789 1.73228C35.672 1.3956 34.5784 1.42574 33.5915 1.81737C32.6047 2.20899 31.788 2.93689 31.286 3.87241L25.7281 3.01739C25.338 2.9572 24.94 3.05321 24.6203 3.28459C24.3007 3.51597 24.0851 3.86406 24.0204 4.25336L22.7242 12.0305C18.6294 12.207 14.6968 13.2265 11.4258 14.9643C10.2347 13.9328 8.68566 13.4113 7.11328 13.5125C5.5409 13.6137 4.07148 14.3295 3.02253 15.5053C1.97358 16.681 1.42934 18.2222 1.5074 19.7959C1.58547 21.3696 2.27957 22.8494 3.43973 23.9156C3.1485 24.9179 3.00046 25.9563 3 27C3 31.1127 5.25788 34.9409 9.35761 37.7792C13.2891 40.5011 18.4893 42 24 42C29.5107 42 34.7109 40.5011 38.6424 37.7792C42.7421 34.9409 45 31.1127 45 27C44.9996 25.9563 44.8515 24.918 44.5602 23.9158C45.1699 23.3528 45.6568 22.67 45.9906 21.9102C46.3244 21.1504 46.4978 20.3299 46.5 19.5ZM13.5 24.75C13.5 24.1567 13.6759 23.5766 14.0056 23.0833C14.3352 22.5899 14.8038 22.2054 15.3519 21.9784C15.9001 21.7513 16.5033 21.6919 17.0853 21.8077C17.6672 21.9234 18.2018 22.2091 18.6213 22.6287C19.0409 23.0482 19.3266 23.5828 19.4424 24.1647C19.5581 24.7467 19.4987 25.3499 19.2716 25.8981C19.0446 26.4462 18.6601 26.9148 18.1667 27.2444C17.6734 27.5741 17.0933 27.75 16.5 27.75C15.7046 27.7491 14.9421 27.4327 14.3797 26.8703C13.8173 26.3079 13.5009 25.5454 13.5 24.75ZM30.8806 34.333C28.7527 35.4293 26.3937 36.0013 24 36.0013C21.6064 36.0013 19.2474 35.4293 17.1195 34.333C16.7672 34.1498 16.502 33.8344 16.3818 33.456C16.2617 33.0775 16.2966 32.6668 16.4787 32.314C16.6609 31.9612 16.9755 31.695 17.3536 31.5738C17.7318 31.4526 18.1425 31.4862 18.4958 31.6674C20.198 32.5444 22.0852 33.0019 24 33.0019C25.9148 33.0019 27.802 32.5444 29.5042 31.6674C29.8576 31.4851 30.269 31.4507 30.6478 31.5716C31.0267 31.6926 31.342 31.959 31.5244 32.3124C31.7069 32.6657 31.7416 33.0771 31.6208 33.456C31.5001 33.8349 31.2338 34.1504 30.8806 34.333ZM31.5 27.75C30.9067 27.75 30.3266 27.5741 29.8333 27.2444C29.3399 26.9148 28.9554 26.4462 28.7284 25.8981C28.5013 25.3499 28.4419 24.7467 28.5576 24.1647C28.6734 23.5828 28.9591 23.0482 29.3787 22.6287C29.7982 22.2091 30.3328 21.9234 30.9147 21.8077C31.4967 21.6919 32.0999 21.7513 32.6481 21.9784C33.1962 22.2054 33.6648 22.5899 33.9944 23.0833C34.3241 23.5766 34.5 24.1567 34.5 24.75C34.4991 25.5454 34.1827 26.3079 33.6203 26.8703C33.0579 27.4327 32.2954 27.7491 31.5 27.75Z"/>

<style>
  svg {
    fill: #FD82A9
  }
</style>

</svg>
