<svg width="48" height="48" viewBox="0 0 48 48" xmlns="http://www.w3.org/2000/svg">
<path d="M46.0607 14.5607L40.4914 20.1299C40.3418 25.6342 38.2408 31.0025 34.6749 34.9439C30.4982 39.56 24.7322 42 18 42C11.454 42 8.07971 38.7011 7.93927 38.5607C7.74741 38.3688 7.61119 38.1284 7.54513 37.8653C7.47906 37.6021 7.48562 37.3259 7.56411 37.0662C7.6426 36.8064 7.79007 36.5728 7.99082 36.3903C8.19158 36.2077 8.43809 36.083 8.7041 36.0295C10.305 35.7052 14.2788 34.4422 15.9697 32.166C14.1567 31.1205 12.5468 29.7571 11.217 28.141C6.51233 22.4281 6.61203 15.2486 7.52417 10.2317C7.57567 9.94847 7.70756 9.68607 7.9041 9.47578C8.10065 9.26549 8.35354 9.11619 8.63262 9.04569C8.91169 8.97519 9.20516 8.98648 9.47799 9.0782C9.75083 9.16992 9.99151 9.3382 10.1713 9.56297C10.2229 9.62706 15.1529 15.667 22.5 17.6402V16.5006C22.5158 14.0987 23.4848 11.8014 25.1938 10.1138C26.9029 8.42611 29.2122 7.48619 31.6141 7.50065C33.1743 7.52226 34.7022 7.94816 36.0485 8.73676C37.3949 9.52536 38.5137 10.6497 39.2957 11.9999L45 12C45.2967 12 45.5867 12.088 45.8334 12.2528C46.08 12.4176 46.2723 12.6519 46.3858 12.926C46.4994 13.2 46.5291 13.5016 46.4712 13.7926C46.4134 14.0836 46.2705 14.3509 46.0607 14.5607Z"/>

<style>
  svg {
    fill: #FD82A9
  }
</style>

</svg>
