<svg width="1920" height="1080" viewBox="0 0 1920 1080" fill="none" xmlns="http://www.w3.org/2000/svg">
<g clip-path="url(#clip0_53:2)">
<path d="M1433.3 764.345L2515.94 764.059L2517.35 551.59L1925.95 553.1L2545.93 -83.1163L1457.88 -82.8285L1456.47 129.64L2049.22 129.484L1433.3 764.345Z" stroke="#46FBA4" stroke-linecap="round" stroke-dasharray="150 150"/>
<path d="M1721.68 267.607L1556.53 438.167L1556.58 267.651L1721.68 267.607Z" stroke="#46FBA4" stroke-linecap="round" stroke-dasharray="150 150"/>
<path d="M2405.1 257.953L2250.78 414.977L2403.71 413.583L2405.1 257.953Z" stroke="#46FBA4" stroke-linecap="round" stroke-dasharray="150 150"/>
<path d="M-43.3409 1480L722 714.254L572.759 563.019L155.648 982.265L144.168 94L-625 863.575L-475.759 1014.81L-56.7344 595.564L-43.3409 1480Z" stroke="#46FBA4" stroke-linecap="round" stroke-dasharray="150 150"/>
<path d="M-190.669 924.834L-186.842 1162.22L-307.384 1041.61L-190.669 924.834Z" stroke="#46FBA4" stroke-linecap="round" stroke-dasharray="150 150"/>
<path d="M285.756 434.757L287.669 654.909L394.817 545.79L285.756 434.757Z" stroke="#46FBA4" stroke-linecap="round" stroke-dasharray="150 150"/>
</g>
<defs>
<clipPath id="clip0_53:2">
<rect width="1920" height="1080" fill="white"/>
</clipPath>
</defs>
</svg>
