<svg width="1920" height="1080" viewBox="0 0 1920 1080" fill="none" xmlns="http://www.w3.org/2000/svg">
<g clip-path="url(#clip0_53:2)">
<g clip-path="url(#clip1_53:2)">
<path d="M128 -281L133.3 -233C139 -185 149 -89 181.3 7C213 103 267 199 293.3 295C320 391 320 487 309.3 583C299 679 277 775 261.3 871C245 967 235 1063 229.3 1111L224 1159H3.05176e-05L3.05176e-05 1111C3.05176e-05 1063 3.05176e-05 967 3.05176e-05 871C3.05176e-05 775 3.05176e-05 679 3.05176e-05 583C3.05176e-05 487 3.05176e-05 391 3.05176e-05 295C3.05176e-05 199 3.05176e-05 103 3.05176e-05 7C3.05176e-05 -89 3.05176e-05 -185 3.05176e-05 -233V-281H128Z" fill="#4BEA9E"/>
</g>
<g clip-path="url(#clip2_53:2)">
<path d="M1735.5 1291L1704.75 1243C1674 1195 1612.5 1099 1622.69 1003C1633.64 907 1714.36 811 1725.31 715C1735.5 619 1674 523 1674 427C1674 331 1735.5 235 1745.69 139C1756.64 43 1714.36 -53 1694.56 -101L1674 -149H1920V-101C1920 -53 1920 43 1920 139C1920 235 1920 331 1920 427C1920 523 1920 619 1920 715C1920 811 1920 907 1920 1003C1920 1099 1920 1195 1920 1243V1291H1735.5Z" fill="#4BEA9E"/>
</g>
<g clip-path="url(#clip3_53:2)">
<path d="M1888 1224L1872 1176C1856 1128 1824 1032 1797.3 936C1771 840 1749 744 1765.3 648C1781 552 1835 456 1850.7 360C1867 264 1845 168 1850.7 72.0001C1856 -23.9999 1888 -120 1904 -168L1920 -216V-168C1920 -120 1920 -23.9999 1920 72.0001C1920 168 1920 264 1920 360C1920 456 1920 552 1920 648C1920 744 1920 840 1920 936C1920 1032 1920 1128 1920 1176V1224H1888Z" fill="#46FBA4"/>
</g>
<g clip-path="url(#clip4_53:2)">
<path d="M31.9999 -112L47.9999 -64C63.9999 -16 95.9999 80 122.7 176C149 272 171 368 154.7 464C139 560 84.9999 656 69.2999 752C52.9999 848 74.9999 944 69.2999 1040C63.9999 1136 31.9999 1232 15.9999 1280L-7.62939e-05 1328V1280C-7.62939e-05 1232 -7.62939e-05 1136 -7.62939e-05 1040C-7.62939e-05 944 -7.62939e-05 848 -7.62939e-05 752C-7.62939e-05 656 -7.62939e-05 560 -7.62939e-05 464C-7.62939e-05 368 -7.62939e-05 272 -7.62939e-05 176C-7.62939e-05 80 -7.62939e-05 -16 -7.62939e-05 -64V-112H31.9999Z" fill="#46FBA4"/>
</g>
</g>
<defs>
<clipPath id="clip0_53:2">
<rect width="1920" height="1080" fill="white"/>
</clipPath>
<clipPath id="clip1_53:2">
<rect width="1440" height="320" fill="white" transform="translate(320 -281) rotate(90)"/>
</clipPath>
<clipPath id="clip2_53:2">
<rect width="1440" height="615" fill="white" transform="translate(1305 1291) rotate(-90)"/>
</clipPath>
<clipPath id="clip3_53:2">
<rect width="1440" height="320" fill="white" transform="translate(1600 1224) rotate(-90)"/>
</clipPath>
<clipPath id="clip4_53:2">
<rect width="1440" height="320" fill="white" transform="translate(320 -112) rotate(90)"/>
</clipPath>
</defs>
</svg>
