<svg width="40" height="40" viewBox="0 0 40 40" fill="none" xmlns="http://www.w3.org/2000/svg">
<path fill-rule="evenodd" clip-rule="evenodd" d="M37.1029 0H3.01524C1.38476 0 0 1.28952 0 2.8781V37.12C0 38.7105 0.908572 40 2.53905 40H36.6267C38.259 40 40 38.7105 40 37.12V2.8781C40 1.28952 38.7352 0 37.1029 0ZM15.2381 15.2381H20.6229V17.9829H20.6819C21.5029 16.5029 23.9276 15 26.9257 15C32.68 15 34.2857 18.0552 34.2857 23.7143V34.2857H28.5714V24.7562C28.5714 22.2229 27.56 20 25.1943 20C22.3219 20 20.9524 21.9448 20.9524 25.1371V34.2857H15.2381V15.2381ZM5.71429 34.2857H11.4286V15.2381H5.71429V34.2857ZM12.1429 8.57143C12.1429 10.5448 10.5448 12.1429 8.57143 12.1429C6.5981 12.1429 5 10.5448 5 8.57143C5 6.5981 6.5981 5 8.57143 5C10.5448 5 12.1429 6.5981 12.1429 8.57143Z" fill="#B2B2BF"/>
</svg>
