<svg width="640" height="400" viewBox="0 0 640 400" fill="none" xmlns="http://www.w3.org/2000/svg">
<path d="M254.208 148.64H236.496V203.936L215.76 148.64H198.048V248H215.76V195.008L236.496 248H254.208V148.64ZM266.827 148.64V248H284.395V148.64H266.827ZM339.96 232.016H311.592L339.384 164.624V148.64H295.464V164.624H321.96L294.024 232.016V248H339.96V232.016ZM391.71 232.016H363.342L391.134 164.624V148.64H347.214V164.624H373.71L345.774 232.016V248H391.71V232.016ZM401.124 148.64V248H418.692V148.64H401.124ZM444.449 245.84C448.481 248.144 453.233 249.152 458.417 249.152C463.601 249.152 468.209 248.144 472.385 245.84C476.417 243.536 479.729 240.368 482.033 236.192C484.337 232.16 485.489 227.408 485.489 221.936V148.64H467.777V221.504C467.777 229.28 464.609 233.168 458.417 233.168C455.249 233.168 452.801 232.304 451.361 230.432C449.777 228.56 449.057 225.536 449.057 221.504V148.64H431.345V221.936C431.345 227.408 432.497 232.16 434.801 236.192C437.105 240.368 440.417 243.536 444.449 245.84ZM567.707 148.64H549.995L532.571 201.056L515.291 148.64H497.579V248H515.291V190.256L527.819 228.704H537.323L549.995 189.824V248H567.707V148.64Z" fill="#46FBA4"/>
<path d="M0 189.909L83.9779 274L100.564 257.602L54.5856 211.773L152 210.511L67.6022 126L51.0166 142.398L96.9945 188.437L0 189.909Z" fill="#46FBA4"/>
<path d="M60.884 173.722L34.8508 174.142L48.0774 160.898L60.884 173.722Z" fill="#46FBA4"/>
<path d="M114.63 226.068L90.4862 226.278L102.453 238.051L114.63 226.068Z" fill="#46FBA4"/>
</svg>
