<svg width="1920" height="1080" viewBox="0 0 1920 1080" fill="none" xmlns="http://www.w3.org/2000/svg">
<g clip-path="url(#clip0_53:2)">
<rect width="1920" height="1080" fill="#0D100F"/>
<path d="M866.2 414.5H823.15V548.9L772.75 414.5H729.7V656H772.75V527.2L823.15 656H866.2V414.5ZM896.871 414.5V656H939.571V414.5H896.871ZM1074.63 617.15H1005.68L1073.23 453.35V414.5H966.475V453.35H1030.88L962.975 617.15V656H1074.63V617.15ZM1200.41 617.15H1131.46L1199.01 453.35V414.5H1092.26V453.35H1156.66L1088.76 617.15V656H1200.41V617.15ZM1223.29 414.5V656H1265.99V414.5H1223.29ZM1328.59 650.75C1338.39 656.35 1349.94 658.8 1362.54 658.8C1375.14 658.8 1386.34 656.35 1396.49 650.75C1406.29 645.15 1414.34 637.45 1419.94 627.3C1425.54 617.5 1428.34 605.95 1428.34 592.65V414.5H1385.29V591.6C1385.29 610.5 1377.59 619.95 1362.54 619.95C1354.84 619.95 1348.89 617.85 1345.39 613.3C1341.54 608.75 1339.79 601.4 1339.79 591.6V414.5H1296.74V592.65C1296.74 605.95 1299.54 617.5 1305.14 627.3C1310.74 637.45 1318.79 645.15 1328.59 650.75ZM1628.18 414.5H1585.13L1542.78 541.9L1500.78 414.5H1457.73V656H1500.78V515.65L1531.23 609.1H1554.33L1585.13 514.6V656H1628.18V414.5Z" fill="#46FBA4"/>
<path d="M278 524L478 724L517.5 685L408 576L640 573L439 372L399.5 411L509 520.5L278 524Z" fill="#46FBA4"/>
<path d="M423 485.5L361 486.5L392.5 455L423 485.5Z" fill="#46FBA4"/>
<path d="M551 610L493.5 610.5L522 638.5L551 610Z" fill="#46FBA4"/>
<path d="M1246.3 305.345L2328.94 305.059L2330.35 92.59L1738.95 94.0997L2358.93 -542.116L1270.88 -541.829L1269.47 -329.36L1862.22 -329.516L1246.3 305.345Z" stroke="#46FBA4" stroke-linecap="round" stroke-dasharray="150 150"/>
<path d="M1534.68 -191.393L1369.53 -20.8333L1369.58 -191.349L1534.68 -191.393Z" stroke="#46FBA4" stroke-linecap="round" stroke-dasharray="150 150"/>
<path d="M2218.1 -201.047L2063.78 -44.0231L2216.71 -45.4168L2218.1 -201.047Z" stroke="#46FBA4" stroke-linecap="round" stroke-dasharray="150 150"/>
<path d="M-1.34094 1758L764 992.254L614.759 841.019L197.648 1260.27L186.168 372L-583 1141.57L-433.759 1292.81L-14.7344 873.564L-1.34094 1758Z" stroke="#46FBA4" stroke-linecap="round" stroke-dasharray="150 150"/>
<path d="M-148.669 1202.83L-144.842 1440.22L-265.384 1319.61L-148.669 1202.83Z" stroke="#46FBA4" stroke-linecap="round" stroke-dasharray="150 150"/>
<path d="M327.756 712.757L329.669 932.909L436.817 823.79L327.756 712.757Z" stroke="#46FBA4" stroke-linecap="round" stroke-dasharray="150 150"/>
</g>
<defs>
<clipPath id="clip0_53:2">
<rect width="1920" height="1080" fill="white"/>
</clipPath>
</defs>
</svg>
