<svg width="640" height="400" viewBox="0 0 640 400" fill="none" xmlns="http://www.w3.org/2000/svg">
<path d="M287.208 148.64H269.496V203.936L248.76 148.64H231.048V248H248.76V195.008L269.496 248H287.208V148.64ZM299.827 148.64V248H317.395V148.64H299.827ZM372.96 232.016H344.592L372.384 164.624V148.64H328.464V164.624H354.96L327.024 232.016V248H372.96V232.016ZM424.71 232.016H396.342L424.134 164.624V148.64H380.214V164.624H406.71L378.774 232.016V248H424.71V232.016ZM434.124 148.64V248H451.692V148.64H434.124ZM477.449 245.84C481.481 248.144 486.233 249.152 491.417 249.152C496.601 249.152 501.209 248.144 505.385 245.84C509.417 243.536 512.729 240.368 515.033 236.192C517.337 232.16 518.489 227.408 518.489 221.936V148.64H500.777V221.504C500.777 229.28 497.609 233.168 491.417 233.168C488.249 233.168 485.801 232.304 484.361 230.432C482.777 228.56 482.057 225.536 482.057 221.504V148.64H464.345V221.936C464.345 227.408 465.497 232.16 467.801 236.192C470.105 240.368 473.417 243.536 477.449 245.84ZM600.707 148.64H582.995L565.571 201.056L548.291 148.64H530.579V248H548.291V190.256L560.819 228.704H570.323L582.995 189.824V248H600.707V148.64Z" fill="#46FBA4"/>
<path d="M33 189.909L116.978 274L133.564 257.602L87.5856 211.773L185 210.511L100.602 126L84.0166 142.398L129.994 188.437L33 189.909Z" fill="#46FBA4"/>
<path d="M93.884 173.722L67.8508 174.142L81.0774 160.898L93.884 173.722Z" fill="#46FBA4"/>
<path d="M147.63 226.068L123.486 226.278L135.453 238.051L147.63 226.068Z" fill="#46FBA4"/>
</svg>
