<svg width="40" height="40" viewBox="0 0 40 40" fill="none" xmlns="http://www.w3.org/2000/svg">
<path d="M39.405 8.22834C38.0133 8.845 36.5183 9.26167 34.9467 9.45C36.55 8.49 37.78 6.96667 38.36 5.15334C36.86 6.04334 35.1983 6.69 33.43 7.03667C32.0133 5.53 29.9967 4.58667 27.7633 4.58667C23.4767 4.58667 20 8.06334 20 12.3533C20 12.96 20.07 13.55 20.2 14.12C13.745 13.795 8.02666 10.7033 4.19666 6.00667C3.52999 7.15667 3.14666 8.49 3.14666 9.91C3.14666 12.6033 4.51833 14.9817 6.59999 16.3733C5.32666 16.3317 4.12999 15.9833 3.08333 15.4017V15.5017C3.08333 19.2633 5.75833 22.4017 9.31166 23.115C8.65833 23.2917 7.97333 23.385 7.26666 23.385C6.76666 23.385 6.27833 23.3383 5.80499 23.2483C6.79333 26.3317 9.65999 28.5783 13.0583 28.6383C10.4 30.7217 7.05166 31.9633 3.41499 31.9633C2.78833 31.9633 2.16999 31.9267 1.56166 31.855C4.99833 34.06 9.07833 35.3433 13.4617 35.3433C27.745 35.3433 35.5533 23.5133 35.5533 13.2533C35.5533 12.92 35.545 12.5833 35.53 12.25C37.0467 11.1533 38.3633 9.78834 39.4017 8.23334L39.405 8.22834Z" fill="#B2B2BF"/>
</svg>
